<mxfile host="app.diagrams.net" modified="2023-09-14T00:29:57.390Z" agent="Mozilla/5.0 (Windows NT 10.0; Win64; x64) AppleWebKit/537.36 (KHTML, like Gecko) Chrome/116.0.0.0 Safari/537.36" etag="lczmAveTLzmfe8Nd6DWM" version="21.7.2" type="device">
  <diagram name="PÃ¡gina-1" id="fCfiEKODU7eVkXvRGwjn">
    <mxGraphModel dx="1434" dy="758" grid="1" gridSize="10" guides="1" tooltips="1" connect="1" arrows="1" fold="1" page="1" pageScale="1" pageWidth="827" pageHeight="1169" math="0" shadow="0">
      <root>
        <mxCell id="0" />
        <mxCell id="1" parent="0" />
        <mxCell id="_VOY_tNOPPM3RjmLwjqa-5" value="" style="edgeStyle=orthogonalEdgeStyle;rounded=0;orthogonalLoop=1;jettySize=auto;html=1;" edge="1" parent="1" source="_VOY_tNOPPM3RjmLwjqa-2" target="_VOY_tNOPPM3RjmLwjqa-4">
          <mxGeometry relative="1" as="geometry" />
        </mxCell>
        <mxCell id="_VOY_tNOPPM3RjmLwjqa-7" value="" style="edgeStyle=orthogonalEdgeStyle;rounded=0;orthogonalLoop=1;jettySize=auto;html=1;" edge="1" parent="1" source="_VOY_tNOPPM3RjmLwjqa-2" target="_VOY_tNOPPM3RjmLwjqa-6">
          <mxGeometry relative="1" as="geometry" />
        </mxCell>
        <mxCell id="_VOY_tNOPPM3RjmLwjqa-2" value="E" style="rounded=0;whiteSpace=wrap;html=1;" vertex="1" parent="1">
          <mxGeometry x="354" y="60" width="120" height="60" as="geometry" />
        </mxCell>
        <mxCell id="_VOY_tNOPPM3RjmLwjqa-9" value="" style="edgeStyle=orthogonalEdgeStyle;rounded=0;orthogonalLoop=1;jettySize=auto;html=1;" edge="1" parent="1" source="_VOY_tNOPPM3RjmLwjqa-4" target="_VOY_tNOPPM3RjmLwjqa-8">
          <mxGeometry relative="1" as="geometry" />
        </mxCell>
        <mxCell id="_VOY_tNOPPM3RjmLwjqa-11" value="" style="edgeStyle=orthogonalEdgeStyle;rounded=0;orthogonalLoop=1;jettySize=auto;html=1;" edge="1" parent="1" source="_VOY_tNOPPM3RjmLwjqa-4" target="_VOY_tNOPPM3RjmLwjqa-10">
          <mxGeometry relative="1" as="geometry" />
        </mxCell>
        <mxCell id="_VOY_tNOPPM3RjmLwjqa-4" value="T" style="rounded=0;whiteSpace=wrap;html=1;" vertex="1" parent="1">
          <mxGeometry x="180" y="150" width="120" height="60" as="geometry" />
        </mxCell>
        <mxCell id="_VOY_tNOPPM3RjmLwjqa-30" value="" style="edgeStyle=orthogonalEdgeStyle;rounded=0;orthogonalLoop=1;jettySize=auto;html=1;" edge="1" parent="1" source="_VOY_tNOPPM3RjmLwjqa-6" target="_VOY_tNOPPM3RjmLwjqa-29">
          <mxGeometry relative="1" as="geometry" />
        </mxCell>
        <mxCell id="_VOY_tNOPPM3RjmLwjqa-32" value="" style="edgeStyle=orthogonalEdgeStyle;rounded=0;orthogonalLoop=1;jettySize=auto;html=1;" edge="1" parent="1" source="_VOY_tNOPPM3RjmLwjqa-6" target="_VOY_tNOPPM3RjmLwjqa-31">
          <mxGeometry relative="1" as="geometry" />
        </mxCell>
        <mxCell id="_VOY_tNOPPM3RjmLwjqa-34" value="" style="edgeStyle=orthogonalEdgeStyle;rounded=0;orthogonalLoop=1;jettySize=auto;html=1;" edge="1" parent="1" source="_VOY_tNOPPM3RjmLwjqa-6" target="_VOY_tNOPPM3RjmLwjqa-33">
          <mxGeometry relative="1" as="geometry" />
        </mxCell>
        <mxCell id="_VOY_tNOPPM3RjmLwjqa-6" value="E&#39;" style="rounded=0;whiteSpace=wrap;html=1;" vertex="1" parent="1">
          <mxGeometry x="800" y="150" width="120" height="60" as="geometry" />
        </mxCell>
        <mxCell id="_VOY_tNOPPM3RjmLwjqa-13" value="" style="edgeStyle=orthogonalEdgeStyle;rounded=0;orthogonalLoop=1;jettySize=auto;html=1;" edge="1" parent="1" source="_VOY_tNOPPM3RjmLwjqa-8" target="_VOY_tNOPPM3RjmLwjqa-12">
          <mxGeometry relative="1" as="geometry" />
        </mxCell>
        <mxCell id="_VOY_tNOPPM3RjmLwjqa-8" value="F" style="rounded=0;whiteSpace=wrap;html=1;" vertex="1" parent="1">
          <mxGeometry x="30" y="270" width="120" height="60" as="geometry" />
        </mxCell>
        <mxCell id="_VOY_tNOPPM3RjmLwjqa-18" value="" style="edgeStyle=orthogonalEdgeStyle;rounded=0;orthogonalLoop=1;jettySize=auto;html=1;" edge="1" parent="1" source="_VOY_tNOPPM3RjmLwjqa-10" target="_VOY_tNOPPM3RjmLwjqa-17">
          <mxGeometry relative="1" as="geometry" />
        </mxCell>
        <mxCell id="_VOY_tNOPPM3RjmLwjqa-20" value="" style="edgeStyle=orthogonalEdgeStyle;rounded=0;orthogonalLoop=1;jettySize=auto;html=1;" edge="1" parent="1" source="_VOY_tNOPPM3RjmLwjqa-10" target="_VOY_tNOPPM3RjmLwjqa-19">
          <mxGeometry relative="1" as="geometry" />
        </mxCell>
        <mxCell id="_VOY_tNOPPM3RjmLwjqa-22" value="" style="edgeStyle=orthogonalEdgeStyle;rounded=0;orthogonalLoop=1;jettySize=auto;html=1;" edge="1" parent="1" source="_VOY_tNOPPM3RjmLwjqa-10" target="_VOY_tNOPPM3RjmLwjqa-21">
          <mxGeometry relative="1" as="geometry" />
        </mxCell>
        <mxCell id="_VOY_tNOPPM3RjmLwjqa-10" value="T&#39;" style="rounded=0;whiteSpace=wrap;html=1;" vertex="1" parent="1">
          <mxGeometry x="310" y="270" width="120" height="60" as="geometry" />
        </mxCell>
        <mxCell id="_VOY_tNOPPM3RjmLwjqa-12" value="id" style="ellipse;whiteSpace=wrap;html=1;rounded=0;" vertex="1" parent="1">
          <mxGeometry x="50" y="370" width="80" height="80" as="geometry" />
        </mxCell>
        <mxCell id="_VOY_tNOPPM3RjmLwjqa-17" value="*" style="ellipse;whiteSpace=wrap;html=1;rounded=0;" vertex="1" parent="1">
          <mxGeometry x="180" y="370" width="80" height="80" as="geometry" />
        </mxCell>
        <mxCell id="_VOY_tNOPPM3RjmLwjqa-24" value="" style="edgeStyle=orthogonalEdgeStyle;rounded=0;orthogonalLoop=1;jettySize=auto;html=1;" edge="1" parent="1" source="_VOY_tNOPPM3RjmLwjqa-19" target="_VOY_tNOPPM3RjmLwjqa-23">
          <mxGeometry relative="1" as="geometry" />
        </mxCell>
        <mxCell id="_VOY_tNOPPM3RjmLwjqa-19" value="F" style="rounded=0;whiteSpace=wrap;html=1;" vertex="1" parent="1">
          <mxGeometry x="310" y="380" width="120" height="60" as="geometry" />
        </mxCell>
        <mxCell id="_VOY_tNOPPM3RjmLwjqa-28" value="" style="edgeStyle=orthogonalEdgeStyle;rounded=0;orthogonalLoop=1;jettySize=auto;html=1;" edge="1" parent="1" source="_VOY_tNOPPM3RjmLwjqa-21" target="_VOY_tNOPPM3RjmLwjqa-27">
          <mxGeometry relative="1" as="geometry" />
        </mxCell>
        <mxCell id="_VOY_tNOPPM3RjmLwjqa-21" value="T&#39;" style="rounded=0;whiteSpace=wrap;html=1;" vertex="1" parent="1">
          <mxGeometry x="460" y="380" width="120" height="60" as="geometry" />
        </mxCell>
        <mxCell id="_VOY_tNOPPM3RjmLwjqa-23" value="id" style="ellipse;whiteSpace=wrap;html=1;rounded=0;" vertex="1" parent="1">
          <mxGeometry x="330" y="510" width="80" height="80" as="geometry" />
        </mxCell>
        <mxCell id="_VOY_tNOPPM3RjmLwjqa-27" value="e" style="rhombus;whiteSpace=wrap;html=1;rounded=0;" vertex="1" parent="1">
          <mxGeometry x="480" y="510" width="80" height="80" as="geometry" />
        </mxCell>
        <mxCell id="_VOY_tNOPPM3RjmLwjqa-29" value="+" style="ellipse;whiteSpace=wrap;html=1;rounded=0;" vertex="1" parent="1">
          <mxGeometry x="600" y="260" width="80" height="80" as="geometry" />
        </mxCell>
        <mxCell id="_VOY_tNOPPM3RjmLwjqa-37" value="" style="edgeStyle=orthogonalEdgeStyle;rounded=0;orthogonalLoop=1;jettySize=auto;html=1;" edge="1" parent="1" source="_VOY_tNOPPM3RjmLwjqa-31" target="_VOY_tNOPPM3RjmLwjqa-36">
          <mxGeometry relative="1" as="geometry" />
        </mxCell>
        <mxCell id="_VOY_tNOPPM3RjmLwjqa-39" value="" style="edgeStyle=orthogonalEdgeStyle;rounded=0;orthogonalLoop=1;jettySize=auto;html=1;" edge="1" parent="1" source="_VOY_tNOPPM3RjmLwjqa-31" target="_VOY_tNOPPM3RjmLwjqa-38">
          <mxGeometry relative="1" as="geometry" />
        </mxCell>
        <mxCell id="_VOY_tNOPPM3RjmLwjqa-31" value="T" style="rounded=0;whiteSpace=wrap;html=1;" vertex="1" parent="1">
          <mxGeometry x="800" y="260" width="120" height="60" as="geometry" />
        </mxCell>
        <mxCell id="_VOY_tNOPPM3RjmLwjqa-45" value="" style="edgeStyle=orthogonalEdgeStyle;rounded=0;orthogonalLoop=1;jettySize=auto;html=1;" edge="1" parent="1" source="_VOY_tNOPPM3RjmLwjqa-33" target="_VOY_tNOPPM3RjmLwjqa-44">
          <mxGeometry relative="1" as="geometry" />
        </mxCell>
        <mxCell id="_VOY_tNOPPM3RjmLwjqa-33" value="E&#39;" style="rounded=0;whiteSpace=wrap;html=1;" vertex="1" parent="1">
          <mxGeometry x="1070" y="260" width="120" height="60" as="geometry" />
        </mxCell>
        <mxCell id="_VOY_tNOPPM3RjmLwjqa-41" value="" style="edgeStyle=orthogonalEdgeStyle;rounded=0;orthogonalLoop=1;jettySize=auto;html=1;" edge="1" parent="1" source="_VOY_tNOPPM3RjmLwjqa-36" target="_VOY_tNOPPM3RjmLwjqa-40">
          <mxGeometry relative="1" as="geometry" />
        </mxCell>
        <mxCell id="_VOY_tNOPPM3RjmLwjqa-36" value="F" style="rounded=0;whiteSpace=wrap;html=1;" vertex="1" parent="1">
          <mxGeometry x="700" y="380" width="120" height="60" as="geometry" />
        </mxCell>
        <mxCell id="_VOY_tNOPPM3RjmLwjqa-43" value="" style="edgeStyle=orthogonalEdgeStyle;rounded=0;orthogonalLoop=1;jettySize=auto;html=1;" edge="1" parent="1" source="_VOY_tNOPPM3RjmLwjqa-38" target="_VOY_tNOPPM3RjmLwjqa-42">
          <mxGeometry relative="1" as="geometry" />
        </mxCell>
        <mxCell id="_VOY_tNOPPM3RjmLwjqa-38" value="T&#39;" style="rounded=0;whiteSpace=wrap;html=1;" vertex="1" parent="1">
          <mxGeometry x="930" y="380" width="120" height="60" as="geometry" />
        </mxCell>
        <mxCell id="_VOY_tNOPPM3RjmLwjqa-40" value="id" style="ellipse;whiteSpace=wrap;html=1;rounded=0;" vertex="1" parent="1">
          <mxGeometry x="720" y="505" width="80" height="80" as="geometry" />
        </mxCell>
        <mxCell id="_VOY_tNOPPM3RjmLwjqa-42" value="e" style="rhombus;whiteSpace=wrap;html=1;rounded=0;" vertex="1" parent="1">
          <mxGeometry x="950" y="505" width="80" height="80" as="geometry" />
        </mxCell>
        <mxCell id="_VOY_tNOPPM3RjmLwjqa-44" value="e" style="rhombus;whiteSpace=wrap;html=1;rounded=0;" vertex="1" parent="1">
          <mxGeometry x="1090" y="370" width="80" height="80" as="geometry" />
        </mxCell>
      </root>
    </mxGraphModel>
  </diagram>
</mxfile>
